<?xml version="1.0" encoding="UTF-8"?>
<svg id="Layer_2" data-name="Layer 2" xmlns="http://www.w3.org/2000/svg" viewBox="0 0 1080 1080">
  <g id="Layer_1-2" data-name="Layer 1">
    <g>
      <path d="M706.09,329.37c-6.42,0-12.25,1.53-17.47,4.56-5.23,3.03-9.28,7.25-12.16,12.66s-4.3,11.14-4.3,17.2c0,6.41,1.42,12.23,4.3,17.45,2.88,5.23,6.92,9.28,12.16,12.16,5.22,2.88,11.05,4.3,17.47,4.3,6.06,0,11.8-1.42,17.2-4.3s9.62-6.92,12.66-12.16c3.03-5.22,4.56-11.05,4.56-17.45,0-6.06-1.61-11.72-4.81-16.95-3.22-5.23-7.44-9.45-12.66-12.66-5.23-3.2-10.89-4.81-16.95-4.81Z"/>
      <path d="M540,0C241.77,0,0,241.77,0,540s241.77,540,540,540,540-241.77,540-540S838.23,0,540,0ZM580.04,907.95h-107.31v-108.83h107.31v108.83ZM742.02,430.87c-7.44,21.77-18.58,42.34-33.42,61.75s-34.59,40.06-59.22,62c-19.23,16.88-34.42,31.73-45.55,44.55-11.14,12.83-19.5,26.16-25.06,40s-8.34,29.53-8.34,47.06v31.39h-89.09v-31.39c0-26.66,2.78-49.27,8.34-67.83s14.52-35.94,26.83-52.14c12.31-16.19,30.3-35.27,53.92-57.2,20.91-19.56,37.44-36.36,49.59-50.36s21.94-29.09,29.36-45.3,11.14-33.92,11.14-53.16c0-22.94-4.81-42.86-14.42-59.73-9.62-16.88-23.03-29.78-40.25-38.72s-36.95-13.42-59.22-13.42c-41.52,0-73.08,13.08-94.67,39.23s-32.91,60.33-33.91,102.5h-93.14c1-45.55,10.7-85.03,29.11-118.44,18.39-33.41,44.3-59.06,77.7-76.95,33.41-17.88,72.38-26.83,116.94-26.83,39.81,0,75.23,8.19,106.28,24.56s55.17,38.98,72.39,67.83,25.83,61.5,25.83,97.94c0,26.67-3.72,50.89-11.14,72.66Z"/>
    </g>
  </g>
</svg>